<svg width="24" height="24" viewBox="0 0 24 24" fill="none" xmlns="http://www.w3.org/2000/svg">
<path fill-rule="evenodd" clip-rule="evenodd" d="M6.47044 2.00173L6.49706 2.00344C7.02095 2.04687 7.47597 2.30722 7.89133 2.71305C8.68068 3.48398 10.3757 5.73367 10.5036 6.3459C10.6453 7.02891 10.4938 7.47252 10.0424 8.25724L9.93299 8.45064C9.72584 8.82898 9.69417 8.98521 9.75831 9.16409C10.7439 11.5763 12.4259 13.258 14.8106 14.232C15.0364 14.3138 15.2069 14.2669 15.6842 13.9931L15.9332 13.8522C16.6042 13.4842 17.0294 13.3679 17.6565 13.4985C18.2666 13.6264 20.5176 15.3224 21.2873 16.1108C21.6926 16.5257 21.9535 16.9816 21.999 17.5399C22.0469 18.8972 20.3908 20.8082 19.3805 21.3828C18.2317 22.2046 16.7737 22.191 15.139 21.4301C10.8641 19.6513 4.325 13.1539 2.58238 8.88432L2.47807 8.64549C1.81637 7.06399 1.83071 5.69766 2.58898 4.66758C3.28088 3.52176 5.14635 1.94049 6.47044 2.00173ZM6.38973 3.46396L6.30157 3.46848C5.62198 3.55877 4.25914 4.73206 3.80528 5.47833L3.72688 5.59501C3.33589 6.23204 3.38121 7.10686 3.92555 8.30469L4.02959 8.54821C5.78511 12.4882 11.8634 18.4822 15.7285 20.0911L15.9414 20.1858C17.0596 20.6598 17.9061 20.6388 18.5915 20.1528L18.6421 20.1202C18.8542 19.9729 19.3433 19.5285 19.7199 19.0938C20.249 18.4833 20.5487 17.9239 20.539 17.6262C20.5285 17.4988 20.4302 17.3271 20.2408 17.1332C19.6686 16.5472 17.5875 14.9791 17.3575 14.9309C17.14 14.8856 16.9615 14.9465 16.4733 15.2273L16.2277 15.3652C15.5085 15.7531 15.0015 15.8573 14.2852 15.5973C11.5092 14.4643 9.53843 12.4938 8.39339 9.6898C8.12217 8.94009 8.26817 8.40967 8.73983 7.58763L8.8522 7.38992C9.06646 7.00304 9.11181 6.8389 9.07143 6.64419C9.02309 6.41293 7.45601 4.333 6.86919 3.75987C6.67487 3.57002 6.50413 3.47232 6.37635 3.46173L6.38973 3.46396Z" fill="#CCCCCC"/>
</svg>
