<svg width="60" height="60" viewBox="0 0 60 60" fill="none" xmlns="http://www.w3.org/2000/svg">
<g clip-path="url(#clip0_76_1355)">
<path d="M30 24.2146C35.6307 24.2146 40.1953 19.65 40.1953 14.0193C40.1953 8.38857 35.6307 3.82397 30 3.82397C24.3693 3.82397 19.8047 8.38857 19.8047 14.0193C19.8047 19.65 24.3693 24.2146 30 24.2146Z" fill="#F4AC16"/>
<path d="M50.625 24.2146C54.1846 24.2146 57.0703 21.3289 57.0703 17.7693C57.0703 14.2096 54.1846 11.324 50.625 11.324C47.0654 11.324 44.1797 14.2096 44.1797 17.7693C44.1797 21.3289 47.0654 24.2146 50.625 24.2146Z" fill="#111111"/>
<path d="M9.375 24.2146C12.9346 24.2146 15.8203 21.3289 15.8203 17.7693C15.8203 14.2096 12.9346 11.324 9.375 11.324C5.81535 11.324 2.92969 14.2096 2.92969 17.7693C2.92969 21.3289 5.81535 24.2146 9.375 24.2146Z" fill="#111111"/>
<path d="M15.7254 30.0028C13.1883 27.9242 10.8906 28.1993 7.95703 28.1993C3.56953 28.1993 0 31.7478 0 36.1083V48.9063C0 50.8001 1.5457 52.3399 3.44648 52.3399C11.6527 52.3399 10.6641 52.4884 10.6641 51.986C10.6641 42.9174 9.58992 36.2669 15.7254 30.0028Z" fill="#111111"/>
<path d="M32.7906 28.2457C27.6667 27.8183 23.213 28.2506 19.3714 31.4215C12.9429 36.5707 14.18 43.5039 14.18 51.9855C14.18 54.2296 16.0058 56.0895 18.2839 56.0895C43.0201 56.0895 44.0046 56.8874 45.4714 53.6391C45.9525 52.5405 45.8207 52.8896 45.8207 42.3809C45.8207 34.0341 38.5934 28.2457 32.7906 28.2457Z" fill="#F4AC16"/>
<path d="M52.0433 28.199C49.0937 28.199 46.8086 27.9267 44.2749 30.0025C50.3646 36.22 49.3362 42.4168 49.3362 51.9857C49.3362 52.4913 48.5156 52.3396 56.4308 52.3396C58.3995 52.3396 60.0003 50.7447 60.0003 48.7842V36.108C60.0003 31.7475 56.4308 28.199 52.0433 28.199Z" fill="#111111"/>
</g>
<defs>
<clipPath id="clip0_76_1355">
<rect width="60" height="60" fill="white"/>
</clipPath>
</defs>
</svg>
