<svg width="60" height="60" viewBox="0 0 60 60" fill="none" xmlns="http://www.w3.org/2000/svg">
<g clip-path="url(#clip0_76_1343)">
<path d="M59.7583 23.7202L49.0942 5.54883C48.6053 4.71574 47.5357 4.4332 46.6992 4.91625L40.3082 8.60613L34.5514 6.48867C34.3396 6.41074 34.125 6.34535 33.9088 6.29039C32.288 5.87836 30.5699 6.10957 29.1039 6.95601L19.5879 12.4501C17.486 13.6636 16.7659 16.3513 17.9794 18.4532C19.1928 20.555 21.8805 21.2752 23.9824 20.0617L34.4246 14.0327C35.5124 13.4047 36.8525 13.4047 37.9403 14.0327C37.9403 14.0327 58.9786 26.1833 59.0461 26.225L59.3596 25.967C60.0266 25.4178 60.1957 24.4653 59.7583 23.7202Z" fill="white"/>
<path d="M57.0847 29.1456L36.1822 17.0776L25.74 23.1064C24.5212 23.8101 23.1684 24.1696 21.7978 24.1696C21.1106 24.1696 20.4191 24.0792 19.7376 23.8967C17.6967 23.3498 15.9908 22.041 14.9345 20.2111C13.878 18.3814 13.5975 16.2497 14.1444 14.2087C14.5958 12.5238 15.5677 11.0685 16.9223 10.0172L12.6124 7.52882C11.7531 7.03264 10.6535 7.34577 10.1844 8.22022L0.209036 26.8181C-0.239675 27.6547 0.0569266 28.6966 0.879231 29.1712L1.79294 29.6987L3.39665 26.9209C4.72708 24.6164 7.20759 23.1848 9.87009 23.1848C11.1765 23.1848 12.467 23.5311 13.6018 24.1864C14.2547 24.5633 14.837 25.0278 15.337 25.5637C16.1452 25.2687 17.0086 25.1101 17.8924 25.1101C19.1988 25.1101 20.4892 25.4564 21.6241 26.1117C23.3522 27.1093 24.5884 28.7204 25.1048 30.6479C25.1617 30.8599 25.2072 31.073 25.2452 31.2865C25.964 31.4525 26.6584 31.7246 27.3025 32.0966C29.0307 33.0942 30.2669 34.7053 30.7834 36.6328C30.8402 36.8448 30.8858 37.0578 30.9238 37.2714C31.6426 37.4374 32.3368 37.7094 32.981 38.0814C36.5484 40.1412 37.7751 44.7192 35.7157 48.2865L33.5258 52.0794L38.2197 54.7895C40.1114 55.8817 42.5302 55.2335 43.6224 53.3419C44.7146 51.4501 44.0665 49.0312 42.1748 47.9391L45.2195 49.6969C47.1111 50.7891 49.53 50.1409 50.6222 48.2492C51.7143 46.3576 51.0662 43.9386 49.1745 42.8464L51.2043 44.0183C53.096 45.1105 55.515 44.4623 56.607 42.5706C57.6992 40.6789 57.0511 38.26 55.1593 37.1679L53.1296 35.996C55.0213 37.0882 57.4401 36.44 58.5323 34.5483C59.6245 32.6566 58.9763 30.2378 57.0847 29.1456Z" fill="#F4AC16"/>
<path d="M31.2231 41.1255C29.3314 40.0334 26.9126 40.6815 25.8204 42.5732L26.9922 40.5435C28.0844 38.6518 27.4363 36.233 25.5446 35.1408C23.653 34.0486 21.2341 34.6968 20.1419 36.5884L21.3138 34.5586C22.406 32.6669 21.7578 30.2481 19.8662 29.1559C17.9746 28.0637 15.5557 28.7119 14.4635 30.6035L13.2916 32.6332C14.3837 30.7416 13.7356 28.3227 11.8439 27.2305C9.95225 26.1383 7.53338 26.7865 6.4412 28.6781L2.19315 36.036C1.10096 37.9276 1.74913 40.3466 3.64077 41.4387C5.53241 42.5309 7.95139 41.8827 9.04346 39.9909C7.95127 41.8826 8.59944 44.3016 10.4911 45.3936C12.3827 46.4858 14.8017 45.8376 15.8938 43.9459C14.8016 45.8375 15.4497 48.2565 17.3415 49.3486C19.2331 50.4408 21.652 49.7926 22.7442 47.9009C21.652 49.7925 22.3002 52.2115 24.1918 53.3036C26.0835 54.3957 28.5024 53.7476 29.5945 51.8558L32.6707 46.5278C33.763 44.6366 33.1148 42.2176 31.2231 41.1255Z" fill="white"/>
</g>
<defs>
<clipPath id="clip0_76_1343">
<rect width="60" height="60" fill="white"/>
</clipPath>
</defs>
</svg>
