<svg width="61" height="60" viewBox="0 0 61 60" fill="none" xmlns="http://www.w3.org/2000/svg">
<path d="M12.9471 27.6733H4.6392C3.31219 27.6733 2.22754 28.7412 2.22754 30.0617V48.4798C2.22754 49.8003 3.31219 50.8797 4.6392 50.8797H12.9471C14.2741 50.8797 15.3588 49.8003 15.3588 48.4798V30.0617C15.3588 28.7412 14.2741 27.6733 12.9471 27.6733ZM8.37779 47.2053C7.16621 47.2053 6.18537 46.2408 6.18537 45.035C6.18537 43.8294 7.16621 42.8534 8.37779 42.8534C9.57781 42.8534 10.5587 43.8294 10.5587 45.035C10.5587 46.2408 9.5778 47.2053 8.37779 47.2053Z" fill="#111111"/>
<path d="M57.8453 39.1103C57.6721 38.3639 57.2106 37.7439 56.5414 37.3765C55.8721 36.9975 55.099 36.9172 54.372 37.1583L36.9252 42.8422C36.3714 43.0374 35.7714 43.1407 35.1598 43.1407H26.3557C25.871 43.1407 25.4902 42.7618 25.4902 42.2795C25.4902 41.8087 25.871 41.4183 26.3557 41.4183H35.1598C35.5637 41.4183 35.9445 41.3609 36.3136 41.2346C36.3252 41.2346 36.3367 41.2232 36.3483 41.2232L36.3598 41.2117C37.7445 40.7294 38.7368 39.3974 38.7368 37.8587C38.7368 35.8837 37.1329 34.2876 35.1597 34.2876H29.4365C28.0749 34.2876 26.771 33.7135 25.8594 32.703L24.6478 31.3711C24.0593 30.728 23.217 30.3606 22.3401 30.3606H17.0899V48.4801C17.0899 48.7787 17.0553 49.0657 16.9976 49.3413L25.0863 53.9229C28.4557 55.829 32.6213 55.8175 35.979 53.8884L56.5645 42.0384C57.6029 41.4413 58.1222 40.2701 57.8453 39.1103Z" fill="#111111"/>
<path d="M29.3322 17.9704C27.1283 19.3254 25.3744 21.3577 24.3936 23.8265H16.3049C14.724 23.8265 13.6163 22.2534 14.1702 20.7836C15.451 17.3848 18.7395 14.9619 22.6051 14.9619C25.2936 14.9619 27.6937 16.1217 29.3322 17.9704Z" fill="#F4AC16"/>
<path d="M26.8842 8.76665C26.8842 11.1194 24.9703 13.0239 22.6061 13.0239C20.242 13.0239 18.3281 11.1194 18.3281 8.76665C18.3281 6.41403 20.242 4.50952 22.6061 4.50952C24.9703 4.50952 26.8842 6.41403 26.8842 8.76665Z" fill="#F4AC16"/>
<path d="M55.3414 23.8265H47.1257C46.1564 21.3807 44.4256 19.3713 42.2678 18.0163C43.9179 16.1447 46.341 14.9619 49.0527 14.9619C52.9066 14.9619 56.1953 17.3848 57.4761 20.7836C58.0184 22.2534 56.9222 23.8265 55.3414 23.8265Z" fill="#F4AC16"/>
<path d="M53.3237 8.76665C53.3237 11.1194 51.4097 13.0239 49.0456 13.0239C46.6814 13.0239 44.7676 11.1194 44.7676 8.76665C44.7676 6.41403 46.6814 4.50952 49.0456 4.50952C51.4097 4.50952 53.3237 6.41403 53.3237 8.76665Z" fill="#F4AC16"/>
<path d="M43.111 28.2045C44.9534 28.2045 46.24 26.3691 45.5958 24.6514C44.109 20.687 40.2702 17.8611 35.7698 17.8611C31.2571 17.8611 27.4157 20.6868 25.9281 24.6511C25.2836 26.3688 26.5703 28.2045 28.4129 28.2045H43.111V28.2045Z" fill="#F4AC16"/>
<path d="M40.7521 10.4534C40.7521 13.198 38.5194 15.4198 35.7614 15.4198C33.0034 15.4198 30.7708 13.198 30.7708 10.4534C30.7708 7.70882 33.0034 5.48706 35.7614 5.48706C38.5194 5.48706 40.7521 7.70882 40.7521 10.4534Z" fill="#F4AC16"/>
</svg>
