<svg width="11" height="18" viewBox="0 0 11 18" fill="none" xmlns="http://www.w3.org/2000/svg">
<path d="M2.34375 13.5H0.164062V6.49219H2.34375V13.5ZM1.24219 5.55469C0.5625 5.55469 0 4.96875 0 4.26562C0 3.58594 0.5625 3.02344 1.24219 3.02344C1.94531 3.02344 2.50781 3.58594 2.50781 4.26562C2.50781 4.96875 1.94531 5.55469 1.24219 5.55469ZM10.4766 13.5H8.32031V10.1016C8.32031 9.28125 8.29688 8.25 7.17188 8.25C6.04688 8.25 5.88281 9.11719 5.88281 10.0312V13.5H3.70312V6.49219H5.78906V7.45312H5.8125C6.11719 6.91406 6.82031 6.32812 7.875 6.32812C10.0781 6.32812 10.5 7.78125 10.5 9.65625V13.5H10.4766Z" fill="white"/>
</svg>
