<svg width="24" height="25" viewBox="0 0 24 25" fill="none" xmlns="http://www.w3.org/2000/svg">
<path fill-rule="evenodd" clip-rule="evenodd" d="M11.6115 2.5C6.30323 2.5 2 6.70819 2 11.8993C2 17.0903 6.30323 21.2985 11.6115 21.2985C13.8819 21.2985 15.9684 20.5287 17.613 19.2415L20.7371 22.2886L20.8202 22.3586C21.1102 22.5685 21.5214 22.5446 21.7839 22.2873C22.0726 22.0043 22.072 21.5459 21.7825 21.2636L18.6952 18.2523C20.2649 16.5794 21.2231 14.3487 21.2231 11.8993C21.2231 6.70819 16.9198 2.5 11.6115 2.5ZM11.6115 3.94774C16.1022 3.94774 19.7426 7.50776 19.7426 11.8993C19.7426 16.2908 16.1022 19.8508 11.6115 19.8508C7.12086 19.8508 3.48044 16.2908 3.48044 11.8993C3.48044 7.50776 7.12086 3.94774 11.6115 3.94774Z" fill="white"/>
</svg>
