<svg width="12" height="18" viewBox="0 0 12 18" fill="none" xmlns="http://www.w3.org/2000/svg">
<path d="M6.25 6.30469C7.72656 6.30469 8.94531 7.52344 8.94531 9C8.94531 10.5 7.72656 11.6953 6.25 11.6953C4.75 11.6953 3.55469 10.5 3.55469 9C3.55469 7.52344 4.75 6.30469 6.25 6.30469ZM6.25 10.7578C7.21094 10.7578 7.98438 9.98438 7.98438 9C7.98438 8.03906 7.21094 7.26562 6.25 7.26562C5.26562 7.26562 4.49219 8.03906 4.49219 9C4.49219 9.98438 5.28906 10.7578 6.25 10.7578ZM9.67188 6.21094C9.67188 6.5625 9.39062 6.84375 9.03906 6.84375C8.6875 6.84375 8.40625 6.5625 8.40625 6.21094C8.40625 5.85938 8.6875 5.57812 9.03906 5.57812C9.39062 5.57812 9.67188 5.85938 9.67188 6.21094ZM11.4531 6.84375C11.5 7.71094 11.5 10.3125 11.4531 11.1797C11.4062 12.0234 11.2188 12.75 10.6094 13.3828C10 13.9922 9.25 14.1797 8.40625 14.2266C7.53906 14.2734 4.9375 14.2734 4.07031 14.2266C3.22656 14.1797 2.5 13.9922 1.86719 13.3828C1.25781 12.75 1.07031 12.0234 1.02344 11.1797C0.976562 10.3125 0.976562 7.71094 1.02344 6.84375C1.07031 6 1.25781 5.25 1.86719 4.64062C2.5 4.03125 3.22656 3.84375 4.07031 3.79688C4.9375 3.75 7.53906 3.75 8.40625 3.79688C9.25 3.84375 10 4.03125 10.6094 4.64062C11.2188 5.25 11.4062 6 11.4531 6.84375ZM10.3281 12.0938C10.6094 11.4141 10.5391 9.77344 10.5391 9C10.5391 8.25 10.6094 6.60938 10.3281 5.90625C10.1406 5.46094 9.78906 5.08594 9.34375 4.92188C8.64062 4.64062 7 4.71094 6.25 4.71094C5.47656 4.71094 3.83594 4.64062 3.15625 4.92188C2.6875 5.10938 2.33594 5.46094 2.14844 5.90625C1.86719 6.60938 1.9375 8.25 1.9375 9C1.9375 9.77344 1.86719 11.4141 2.14844 12.0938C2.33594 12.5625 2.6875 12.9141 3.15625 13.1016C3.83594 13.3828 5.47656 13.3125 6.25 13.3125C7 13.3125 8.64062 13.3828 9.34375 13.1016C9.78906 12.9141 10.1641 12.5625 10.3281 12.0938Z" fill="white"/>
</svg>
