<svg width="16" height="16" viewBox="0 0 16 16" fill="none" xmlns="http://www.w3.org/2000/svg">
<path d="M11.5602 3.63992C11.4019 3.63992 11.2473 3.68684 11.1157 3.77474C10.9841 3.86265 10.8816 3.98759 10.8211 4.13377C10.7605 4.27995 10.7447 4.44081 10.7755 4.59599C10.8064 4.75118 10.8826 4.89372 10.9945 5.0056C11.1064 5.11749 11.2489 5.19368 11.4041 5.22455C11.5593 5.25541 11.7201 5.23957 11.8663 5.17902C12.0125 5.11847 12.1374 5.01593 12.2253 4.88437C12.3132 4.75282 12.3602 4.59814 12.3602 4.43992C12.3602 4.22775 12.2759 4.02426 12.1258 3.87423C11.9758 3.7242 11.7723 3.63992 11.5602 3.63992ZM14.6268 5.25325C14.6139 4.70012 14.5103 4.15285 14.3202 3.63325C14.1507 3.18867 13.8868 2.7861 13.5468 2.45325C13.2167 2.11154 12.8132 1.84937 12.3668 1.68659C11.8486 1.49069 11.3007 1.38473 10.7468 1.37325C10.0402 1.33325 9.8135 1.33325 8.00016 1.33325C6.18683 1.33325 5.96016 1.33325 5.2535 1.37325C4.6996 1.38473 4.15172 1.49069 3.6335 1.68659C3.18795 1.85102 2.78479 2.11296 2.4535 2.45325C2.11178 2.78337 1.84961 3.18688 1.68683 3.63325C1.49094 4.15148 1.38497 4.69935 1.3735 5.25325C1.3335 5.95992 1.3335 6.18658 1.3335 7.99992C1.3335 9.81325 1.3335 10.0399 1.3735 10.7466C1.38497 11.3005 1.49094 11.8484 1.68683 12.3666C1.84961 12.813 2.11178 13.2165 2.4535 13.5466C2.78479 13.8869 3.18795 14.1488 3.6335 14.3133C4.15172 14.5091 4.6996 14.6151 5.2535 14.6266C5.96016 14.6666 6.18683 14.6666 8.00016 14.6666C9.8135 14.6666 10.0402 14.6666 10.7468 14.6266C11.3007 14.6151 11.8486 14.5091 12.3668 14.3133C12.8132 14.1505 13.2167 13.8883 13.5468 13.5466C13.8883 13.215 14.1524 12.812 14.3202 12.3666C14.5103 11.847 14.6139 11.2997 14.6268 10.7466C14.6268 10.0399 14.6668 9.81325 14.6668 7.99992C14.6668 6.18658 14.6668 5.95992 14.6268 5.25325ZM13.4268 10.6666C13.422 11.0898 13.3453 11.5091 13.2002 11.9066C13.0937 12.1967 12.9227 12.4589 12.7002 12.6733C12.4839 12.8936 12.2223 13.0642 11.9335 13.1733C11.536 13.3184 11.1167 13.3951 10.6935 13.3999C10.0268 13.4333 9.78016 13.4399 8.02683 13.4399C6.2735 13.4399 6.02683 13.4399 5.36016 13.3999C4.92076 13.4081 4.48323 13.3405 4.06683 13.1999C3.79068 13.0853 3.54107 12.9151 3.3335 12.6999C3.11222 12.4858 2.94339 12.2234 2.84016 11.9333C2.6774 11.53 2.58712 11.1012 2.5735 10.6666C2.5735 9.99992 2.5335 9.75325 2.5335 7.99992C2.5335 6.24658 2.5335 5.99992 2.5735 5.33325C2.57648 4.90062 2.65546 4.47188 2.80683 4.06659C2.92419 3.78519 3.10434 3.53436 3.3335 3.33325C3.53604 3.10403 3.78635 2.92198 4.06683 2.79992C4.4732 2.65328 4.90149 2.57664 5.3335 2.57325C6.00016 2.57325 6.24683 2.53325 8.00016 2.53325C9.7535 2.53325 10.0002 2.53325 10.6668 2.57325C11.09 2.57811 11.5093 2.65475 11.9068 2.79992C12.2098 2.91235 12.4817 3.09515 12.7002 3.33325C12.9186 3.53804 13.0893 3.78841 13.2002 4.06659C13.3483 4.47254 13.425 4.9011 13.4268 5.33325C13.4602 5.99992 13.4668 6.24658 13.4668 7.99992C13.4668 9.75325 13.4602 9.99992 13.4268 10.6666ZM8.00016 4.57992C7.32404 4.58124 6.66347 4.78294 6.10193 5.15953C5.54039 5.53613 5.10308 6.07072 4.84525 6.69575C4.58742 7.32079 4.52065 8.00823 4.65336 8.6712C4.78607 9.33418 5.11232 9.94294 5.59088 10.4206C6.06944 10.8982 6.67884 11.2233 7.34207 11.3547C8.0053 11.4861 8.69261 11.418 9.31714 11.1589C9.94168 10.8999 10.4754 10.4615 10.8509 9.89927C11.2264 9.337 11.4268 8.67605 11.4268 7.99992C11.4277 7.54999 11.3396 7.10432 11.1677 6.68856C10.9957 6.27279 10.7432 5.89512 10.4247 5.57729C10.1063 5.25945 9.72813 5.0077 9.31203 4.83654C8.89593 4.66537 8.45009 4.57816 8.00016 4.57992ZM8.00016 10.2199C7.56109 10.2199 7.13187 10.0897 6.7668 9.84578C6.40172 9.60184 6.11718 9.25513 5.94915 8.84948C5.78112 8.44382 5.73716 7.99746 5.82282 7.56682C5.90848 7.13618 6.11991 6.74061 6.43039 6.43014C6.74086 6.11967 7.13642 5.90823 7.56706 5.82258C7.9977 5.73692 8.44407 5.78088 8.84972 5.94891C9.25537 6.11693 9.60209 6.40147 9.84602 6.76655C10.09 7.13163 10.2202 7.56084 10.2202 7.99992C10.2202 8.29145 10.1627 8.58013 10.0512 8.84948C9.93961 9.11882 9.77609 9.36355 9.56994 9.5697C9.36379 9.77584 9.11906 9.93937 8.84972 10.0509C8.58038 10.1625 8.2917 10.2199 8.00016 10.2199Z" fill="white"/>
</svg>
