<svg width="24" height="24" viewBox="0 0 24 24" fill="none" xmlns="http://www.w3.org/2000/svg">
<path fill-rule="evenodd" clip-rule="evenodd" d="M16.5253 3.00005L7.45618 3C4.28665 3 2 5.56151 2 8.85897V15.141C2 18.4385 4.28665 21 7.45618 21H16.5168C18.0392 20.9829 19.4802 20.3421 20.5126 19.2266C21.5449 18.111 22.0786 16.6183 21.9893 15.0959L21.9906 8.85897C22.0786 7.38171 21.5449 5.88895 20.5126 4.77344C19.4802 3.65794 18.0392 3.01705 16.5253 3.00005ZM7.45608 4.52843L16.5083 4.52838C17.6072 4.54072 18.6531 5.00592 19.4025 5.81563C20.1519 6.62533 20.5392 7.70887 20.4744 8.81389L20.4731 15.141C20.5392 16.2911 20.1519 17.3747 19.4025 18.1844C18.6531 18.9941 17.6072 19.4593 16.5083 19.4716L7.45608 19.4716C5.16268 19.4716 3.51733 17.6284 3.51733 15.141V8.85897C3.51733 6.37155 5.16268 4.52843 7.45608 4.52843ZM18.0239 8.63837C17.7621 8.30886 17.2846 8.25556 16.9575 8.5193L12.8582 11.8242L12.7407 11.9068C12.2573 12.2095 11.6227 12.1816 11.1597 11.8181L7.03045 8.51732L6.93751 8.45361C6.61724 8.26728 6.2013 8.34031 5.96449 8.64086C5.70401 8.97146 5.75892 9.45217 6.08715 9.71454L10.2216 13.0195L10.3829 13.1375C11.423 13.8459 12.8012 13.8067 13.7987 13.0236L17.9057 9.71255L17.9881 9.63552C18.2399 9.36262 18.262 8.93792 18.0239 8.63837Z" fill="#CCCCCC"/>
</svg>
