<svg width="24" height="24" viewBox="0 0 24 24" fill="none" xmlns="http://www.w3.org/2000/svg">
<path d="M21.4739 12.0123C21.4833 11.2956 21.095 10.6369 20.4646 10.2911L5.77269 2.21901C5.11463 1.84709 4.33891 1.89278 3.71883 2.31621C3.08738 2.74676 2.76417 3.7717 2.94069 4.51197L4.31225 10.2582C4.45305 10.8475 4.9804 11.2624 5.58711 11.2598L13.7631 11.2344C14.1818 11.226 14.5213 11.5656 14.5129 11.9842C14.5117 12.3958 14.1771 12.7304 13.7584 12.7388L5.57466 12.7578C4.96796 12.7589 4.43802 13.1757 4.29356 13.7658L2.87351 19.5349C2.70109 20.2167 2.89766 20.8973 3.37869 21.3783C3.43529 21.4349 3.49895 21.4986 3.56266 21.548C4.18561 22.0286 5.00145 22.0899 5.698 21.7188L20.4397 13.7256C21.0723 13.3902 21.4646 12.729 21.4739 12.0123Z" fill="white"/>
</svg>
