<svg width="16" height="16" viewBox="0 0 16 16" fill="none" xmlns="http://www.w3.org/2000/svg">
<path fill-rule="evenodd" clip-rule="evenodd" d="M7.99992 1.33374C4.31778 1.33374 1.33325 4.31826 1.33325 8.00041C1.33325 11.6825 4.31778 14.6671 7.99992 14.6671C11.6821 14.6671 14.6666 11.6825 14.6666 8.00041C14.6666 4.31826 11.6821 1.33374 7.99992 1.33374ZM7.99992 2.33374C11.1298 2.33374 13.6666 4.87055 13.6666 8.00041C13.6666 11.1303 11.1298 13.6671 7.99992 13.6671C4.87006 13.6671 2.33325 11.1303 2.33325 8.00041C2.33325 4.87055 4.87006 2.33374 7.99992 2.33374ZM8.26975 5.16349C8.23665 4.91944 8.02745 4.73134 7.77432 4.73134C7.49818 4.73134 7.27432 4.9552 7.27432 5.23134V8.46267L7.27989 8.53717C7.30198 8.68387 7.38854 8.81475 7.51816 8.89207L10.0315 10.3914L10.0921 10.4222C10.3187 10.5188 10.5874 10.4356 10.717 10.2182L10.7479 10.1576C10.8445 9.93101 10.7612 9.66229 10.5438 9.53261L8.27405 8.17807L8.27432 5.23134L8.26975 5.16349Z" fill="#94959B"/>
</svg>
