<svg width="16" height="16" viewBox="0 0 16 16" fill="none" xmlns="http://www.w3.org/2000/svg">
<path d="M14.6668 3.86656C14.1657 4.08396 13.6358 4.22767 13.0935 4.29323C13.6656 3.95144 14.0943 3.41375 14.3002 2.7799C13.7625 3.09994 13.174 3.32543 12.5602 3.44656C12.1499 3.00161 11.6035 2.70543 11.0067 2.60446C10.4099 2.5035 9.79652 2.60347 9.26269 2.88869C8.72885 3.17391 8.30478 3.62825 8.05699 4.18045C7.80919 4.73266 7.75169 5.35149 7.8935 5.9399C6.80645 5.88491 5.74312 5.60186 4.7726 5.10914C3.80207 4.61641 2.94606 3.92502 2.26016 3.0799C2.01959 3.50001 1.89318 3.97578 1.8935 4.4599C1.89264 4.90948 2.00297 5.35231 2.21467 5.74894C2.42636 6.14557 2.73284 6.4837 3.10683 6.73323C2.67215 6.7214 2.24675 6.60476 1.86683 6.39323V6.42656C1.87009 7.05649 2.09083 7.66596 2.49171 8.15187C2.89259 8.63779 3.449 8.97032 4.06683 9.09323C3.829 9.16561 3.58208 9.20377 3.3335 9.20656C3.16142 9.20455 2.98978 9.18895 2.82016 9.1599C2.9961 9.70177 3.33658 10.1753 3.79421 10.5147C4.25185 10.854 4.80388 11.0423 5.3735 11.0532C4.41163 11.8101 3.22408 12.2231 2.00016 12.2266C1.77732 12.2273 1.55465 12.2139 1.3335 12.1866C2.58311 12.9934 4.03937 13.4217 5.52683 13.4199C6.55329 13.4306 7.57159 13.2366 8.52224 12.8493C9.47289 12.462 10.3368 11.8892 11.0636 11.1642C11.7904 10.4393 12.3655 9.57682 12.7552 8.62717C13.1449 7.67751 13.3415 6.65971 13.3335 5.63323C13.3335 5.5199 13.3335 5.3999 13.3335 5.2799C13.8566 4.88977 14.3078 4.41151 14.6668 3.86656Z" fill="white"/>
</svg>
