<svg width="16" height="16" viewBox="0 0 16 16" fill="none" xmlns="http://www.w3.org/2000/svg">
<path d="M15.3332 6.47332C15.3662 5.51909 15.1575 4.572 14.7265 3.71999C14.4341 3.37039 14.0283 3.13446 13.5799 3.05332C11.7249 2.88501 9.86221 2.81602 7.99985 2.84666C6.14429 2.81463 4.28833 2.88139 2.43986 3.04666C2.0744 3.11313 1.7362 3.28455 1.46652 3.53999C0.866522 4.09332 0.799855 5.03999 0.733188 5.83999C0.636463 7.27837 0.636463 8.72161 0.733188 10.16C0.752475 10.6103 0.819518 11.0572 0.933188 11.4933C1.01357 11.83 1.1762 12.1416 1.40652 12.4C1.67803 12.669 2.02411 12.8501 2.39986 12.92C3.83713 13.0974 5.28533 13.1709 6.73319 13.14C9.06652 13.1733 11.1132 13.14 13.5332 12.9533C13.9182 12.8878 14.274 12.7064 14.5532 12.4333C14.7398 12.2466 14.8792 12.0181 14.9599 11.7667C15.1983 11.0351 15.3154 10.2694 15.3065 9.49999C15.3332 9.12666 15.3332 6.87332 15.3332 6.47332ZM6.49319 9.89999V5.77332L10.4399 7.84666C9.33319 8.45999 7.87319 9.15332 6.49319 9.89999Z" fill="white"/>
</svg>
